<?xml version="1.0" encoding="utf-8"?>
<!-- Generator: Adobe Illustrator 26.2.1, SVG Export Plug-In . SVG Version: 6.00 Build 0)  -->
<svg version="1.1" id="Capa_1" xmlns="http://www.w3.org/2000/svg" xmlns:xlink="http://www.w3.org/1999/xlink" x="0px" y="0px"
	 viewBox="0 0 23.8 23.8" style="enable-background:new 0 0 23.8 23.8;" xml:space="preserve">
<style type="text/css">
	.st0{display:none;}
	.st1{fill:#0071B1;}
</style>
<g id="Container_Zones" class="st0">
</g>
<g id="Padding_Zones" class="st0">
</g>
<g id="Page_Margins" class="st0">
</g>
<g id="Containers_Grid" class="st0">
</g>
<g id="Padding_Grid" class="st0">
</g>
<g id="bg">
</g>
<g id="diseño">
	<path class="st1" d="M23.8,11.9C23.8,5.3,18.4,0,11.9,0C5.3,0,0,5.3,0,11.9s5.3,11.9,11.9,11.9c0.1,0,0.1,0,0.2,0v-9.2H9.5v-3h2.6
		V9.3c0-2.5,1.5-3.9,3.8-3.9c1.1,0,2,0.1,2.3,0.1v2.7h-1.6c-1.2,0-1.5,0.6-1.5,1.4v1.9H18l-0.4,3H15v8.8
		C20.1,21.9,23.8,17.3,23.8,11.9z"/>
</g>
</svg>
