<?xml version="1.0" encoding="utf-8"?>
<!-- Generator: Adobe Illustrator 26.2.1, SVG Export Plug-In . SVG Version: 6.00 Build 0)  -->
<svg version="1.1" id="Capa_1" xmlns="http://www.w3.org/2000/svg" xmlns:xlink="http://www.w3.org/1999/xlink" x="0px" y="0px"
	 viewBox="0 0 72.1 56.6" style="enable-background:new 0 0 72.1 56.6;" xml:space="preserve">
<style type="text/css">
	.st0{fill:#0072B4;}
</style>
<g transform="translate(336 144)">
	<g id="icon-graduation_00000169545739460029539660000010340909686938566030_">
		<path class="st0" d="M-323.1-108c1.6,6.5,3.6,9.3,10.4,12.3c6.8,3,10,6.2,12.7,6.2c2.7,0,5.7-2.8,12.5-5.8c6.8-3,5-3.9,6.6-10.4
			l-19.1,9.3L-323.1-108L-323.1-108z M-267.1-124.9l-28.8-16.1c-2.2-1.3-5.9-1.3-8.2,0l-28.7,16.1c-2.2,1.3-2.2,3.3,0,4.6l28.7,16.1
			c2.2,1.3,5.9,1.3,8.2,0l18.6-10.4l-20.1-4.7c-0.8,0.1-1.7,0.3-2.6,0.3c-3.6,0-6.6-1.8-6.6-3.9c0-2.2,2.9-3.9,6.6-3.9
			c2.8,0,5.2,1.1,6.1,2.5l21.3,7l5.3-3C-264.9-121.6-264.9-123.6-267.1-124.9L-267.1-124.9z M-275.9-94.4c-0.2,1.3,4.4,3.5,4.9-0.4
			c2-17.5-1.4-22.5-1.4-22.5l-4.8,2.7C-277.3-114.6-273.2-110.7-275.9-94.4z"/>
	</g>
</g>
</svg>
