<?xml version="1.0" encoding="utf-8"?>
<!-- Generator: Adobe Illustrator 26.2.1, SVG Export Plug-In . SVG Version: 6.00 Build 0)  -->
<svg version="1.1" id="Capa_1" xmlns="http://www.w3.org/2000/svg" xmlns:xlink="http://www.w3.org/1999/xlink" x="0px" y="0px"
	 viewBox="0 0 23.8 23.8" style="enable-background:new 0 0 23.8 23.8;" xml:space="preserve">
<style type="text/css">
	.st0{display:none;}
	.st1{fill:#0071B1;}
</style>
<g id="Container_Zones" class="st0">
</g>
<g id="Padding_Zones" class="st0">
</g>
<g id="Page_Margins" class="st0">
</g>
<g id="Containers_Grid" class="st0">
</g>
<g id="Padding_Grid" class="st0">
</g>
<g id="bg">
</g>
<g id="diseño">
	<g>
		<path class="st1" d="M14.2,11.9c0,1.3-1,2.3-2.3,2.3s-2.3-1-2.3-2.3s1-2.3,2.3-2.3C13.1,9.6,14.2,10.6,14.2,11.9z"/>
		<path class="st1" d="M17.2,7.9c-0.1-0.3-0.3-0.6-0.5-0.8c-0.2-0.2-0.5-0.4-0.8-0.5c-0.2-0.1-0.6-0.2-1.3-0.2s-0.9,0-2.8,0
			c-1.8,0-2,0-2.8,0c-0.7,0-1,0.1-1.3,0.2C7.6,6.7,7.3,6.8,7.1,7.1C6.8,7.3,6.7,7.6,6.6,7.9C6.5,8.1,6.4,8.5,6.3,9.1
			c0,0.7,0,0.9,0,2.8c0,1.8,0,2,0,2.8c0,0.7,0.1,1,0.2,1.3s0.3,0.6,0.5,0.8c0.2,0.2,0.5,0.4,0.8,0.5c0.2,0.1,0.6,0.2,1.3,0.2
			s0.9,0,2.8,0c1.8,0,2,0,2.8,0c0.7,0,1-0.1,1.3-0.2c0.6-0.2,1.1-0.7,1.3-1.3c0.1-0.2,0.2-0.6,0.2-1.3s0-0.9,0-2.8c0-1.8,0-2,0-2.8
			C17.4,8.5,17.3,8.1,17.2,7.9z M11.9,15.4c-1.9,0-3.5-1.6-3.5-3.5s1.6-3.5,3.5-3.5s3.5,1.6,3.5,3.5S13.8,15.4,11.9,15.4z M15.5,9.1
			c-0.5,0-0.8-0.4-0.8-0.8c0-0.5,0.4-0.8,0.8-0.8s0.8,0.4,0.8,0.8C16.3,8.7,16,9.1,15.5,9.1z"/>
		<path class="st1" d="M11.9,0C5.3,0,0,5.3,0,11.9s5.3,11.9,11.9,11.9s11.9-5.3,11.9-11.9S18.4,0,11.9,0z M18.7,14.7
			c0,0.7-0.1,1.2-0.3,1.7c-0.4,0.9-1.1,1.6-2,2c-0.4,0.2-0.9,0.3-1.7,0.3c-0.7,0-1,0-2.8,0c-1.9,0-2.1,0-2.8,0s-1.2-0.1-1.7-0.3
			c-0.5-0.2-0.9-0.4-1.2-0.8c-0.3-0.3-0.6-0.8-0.8-1.2c-0.2-0.4-0.3-0.9-0.3-1.7c0-0.7,0-1,0-2.8s0-2.1,0-2.8s0.1-1.2,0.3-1.7
			C5.6,7,5.9,6.5,6.2,6.2C6.5,5.9,7,5.6,7.4,5.4s0.9-0.3,1.7-0.3c0.7,0,1,0,2.8,0s2.1,0,2.8,0c0.7,0,1.2,0.1,1.7,0.3
			c0.5,0.2,0.9,0.4,1.2,0.8c0.3,0.3,0.6,0.8,0.8,1.2c0.2,0.4,0.3,0.9,0.3,1.7c0,0.7,0,1,0,2.8S18.7,14,18.7,14.7z"/>
	</g>
</g>
</svg>
