<?xml version="1.0" encoding="utf-8"?>
<!-- Generator: Adobe Illustrator 26.2.1, SVG Export Plug-In . SVG Version: 6.00 Build 0)  -->
<svg version="1.1" id="Capa_1" xmlns="http://www.w3.org/2000/svg" xmlns:xlink="http://www.w3.org/1999/xlink" x="0px" y="0px"
	 viewBox="0 0 86.1 85.5" style="enable-background:new 0 0 86.1 85.5;" xml:space="preserve">
<style type="text/css">
	.st0{fill:#2259C9;}
	.st1{fill:#00DAC8;}
	.st2{fill:#00BAEB;}
	.st3{fill:#28AAD6;}
	.st4{fill:url(#SVGID_1_);}
	.st5{fill:url(#SVGID_00000097469941289256268120000010243095646141620644_);}
	.st6{fill:url(#SVGID_00000056402490153252653900000001572545681826900893_);}
	.st7{fill:url(#SVGID_00000124147926777801641820000005631520233303721362_);}
	.st8{fill:url(#SVGID_00000005951149327820092760000002279850826642954121_);}
	.st9{fill:url(#SVGID_00000041280104504366733400000013559695930987838892_);}
	.st10{fill:url(#SVGID_00000149346320896940542900000000542487862058741685_);}
	.st11{fill:url(#SVGID_00000007423554835984963050000006166746486433029017_);}
	.st12{opacity:0.2;}
	.st13{fill:none;}
	.st14{fill:url(#SVGID_00000039812972635618464120000015551388416920685962_);}
	.st15{fill:url(#SVGID_00000101821438704887665710000001341423845432738435_);}
	.st16{fill:#FFFFFF;}
	.st17{fill:url(#SVGID_00000096040082595191951840000014576275531638957732_);}
	.st18{fill:url(#SVGID_00000034064759938024203400000009618536932773772425_);}
	.st19{fill:url(#SVGID_00000035522973155606200750000001972567364345300644_);}
	.st20{fill:url(#SVGID_00000178198162669125501890000006513639508301591958_);}
	.st21{fill:url(#SVGID_00000034787216166444700780000016405612058604087735_);}
	.st22{fill:url(#SVGID_00000170978759703481043110000004509716581813437314_);}
</style>
<g id="Capa_1_00000029042789970662555180000008377063095847600564_">
	<g>
		<path class="st0" d="M58.5,50.7L50.2,59l-7.1,7.1L25.7,83.5c-2,2-5.2,2-7.1,0c-1-1-1.5-2.3-1.5-3.6c0-1.3,0.5-2.6,1.5-3.6L35.9,59
			l7.1-7.1l8.4-8.4L58.5,50.7z"/>
		<path class="st0" d="M86.1,21c0,1.3-0.5,2.6-1.5,3.6l-19,19l-7.1-7.1l19-19c2-2,5.1-2,7.1,0C85.6,18.4,86.1,19.7,86.1,21z"/>
		<path class="st1" d="M70.6,5.5c0,1.3-0.5,2.6-1.5,3.6L34.7,43.6l-7.1-7.1l8.4-8.4l7.1-7.1l19-19c2-2,5.1-2,7.1,0
			C70.2,3,70.6,4.2,70.6,5.5z"/>
		<path class="st1" d="M27.6,50.7L10.3,68c-2,2-5.1,2-7.1,0c-1-1-1.5-2.3-1.5-3.6c0-1.3,0.5-2.6,1.5-3.6l17.3-17.3L27.6,50.7z"/>
		<path class="st2" d="M43.1,21L36,28.1l-19-19c-2-2-2-5.1,0-7.1c1-1,2.3-1.5,3.6-1.5c1.3,0,2.6,0.5,3.6,1.5L43.1,21z"/>
		<path class="st2" d="M83,68c-1,1-2.3,1.5-3.6,1.5c-1.3,0-2.6-0.5-3.6-1.5L43.1,35.2l7.1-7.1l8.4,8.4l7.1,7.1L83,60.9
			C84.9,62.9,84.9,66,83,68z"/>
		<path class="st3" d="M43.1,51.9L35.9,59L1.5,24.6c-2-2-2-5.2,0-7.1c1-1,2.3-1.5,3.6-1.5s2.6,0.5,3.6,1.5l19,19l7.1,7.1L43.1,51.9z
			"/>
		<path class="st3" d="M67.5,83.5c-1,1-2.3,1.5-3.6,1.5c-1.3,0-2.6-0.5-3.6-1.5L43.1,66.2l7.1-7.1l17.3,17.3
			C69.5,78.3,69.5,81.5,67.5,83.5z"/>
		<g>
			
				<linearGradient id="SVGID_1_" gradientUnits="userSpaceOnUse" x1="9.3913" y1="25.2531" x2="29.638" y2="47.0088" gradientTransform="matrix(1 0 0 -1 0 88)">
				<stop  offset="0.4935" style="stop-color:#FFFFFF"/>
				<stop  offset="0.5482" style="stop-color:#FAFAFA"/>
				<stop  offset="0.6109" style="stop-color:#ECECEC"/>
				<stop  offset="0.6775" style="stop-color:#D5D5D5"/>
				<stop  offset="0.747" style="stop-color:#B5B5B5"/>
				<stop  offset="0.8185" style="stop-color:#8C8C8C"/>
				<stop  offset="0.8919" style="stop-color:#595959"/>
				<stop  offset="0.9654" style="stop-color:#1E1E1E"/>
				<stop  offset="1" style="stop-color:#000000"/>
			</linearGradient>
			<path class="st4" d="M20.5,57.6c0,0-0.2-14.3,0-14.1s7.1,7,7.1,7L20.5,57.6z"/>
			
				<linearGradient id="SVGID_00000041979513881104050690000003587012419137420439_" gradientUnits="userSpaceOnUse" x1="4720.3965" y1="-318.5272" x2="4740.6436" y2="-296.7715" gradientTransform="matrix(-1 0 0 1 4766.1738 342.7142)">
				<stop  offset="0.4935" style="stop-color:#FFFFFF"/>
				<stop  offset="0.5482" style="stop-color:#FAFAFA"/>
				<stop  offset="0.6109" style="stop-color:#ECECEC"/>
				<stop  offset="0.6775" style="stop-color:#D5D5D5"/>
				<stop  offset="0.747" style="stop-color:#B5B5B5"/>
				<stop  offset="0.8185" style="stop-color:#8C8C8C"/>
				<stop  offset="0.8919" style="stop-color:#595959"/>
				<stop  offset="0.9654" style="stop-color:#1E1E1E"/>
				<stop  offset="1" style="stop-color:#000000"/>
			</linearGradient>
			<path style="fill:url(#SVGID_00000041979513881104050690000003587012419137420439_);" d="M34.7,29.3c0,0,0.2,14.3,0,14.1
				c-0.2-0.2-7.1-7-7.1-7L34.7,29.3z"/>
			
				<linearGradient id="SVGID_00000080192774507071865360000003356266419649933463_" gradientUnits="userSpaceOnUse" x1="2210.5505" y1="-2424.8132" x2="2230.7971" y2="-2403.0574" gradientTransform="matrix(0 1 1 0 2448.5894 -2200.7375)">
				<stop  offset="0.4935" style="stop-color:#FFFFFF"/>
				<stop  offset="0.5482" style="stop-color:#FAFAFA"/>
				<stop  offset="0.6109" style="stop-color:#ECECEC"/>
				<stop  offset="0.6775" style="stop-color:#D5D5D5"/>
				<stop  offset="0.747" style="stop-color:#B5B5B5"/>
				<stop  offset="0.8185" style="stop-color:#8C8C8C"/>
				<stop  offset="0.8919" style="stop-color:#595959"/>
				<stop  offset="0.9654" style="stop-color:#1E1E1E"/>
				<stop  offset="1" style="stop-color:#000000"/>
			</linearGradient>
			<path style="fill:url(#SVGID_00000080192774507071865360000003356266419649933463_);" d="M28.9,20.9c0,0,14.3-0.2,14.1,0
				S36,28,36,28L28.9,20.9z"/>
			
				<linearGradient id="SVGID_00000171720567927321587850000014896002366501373371_" gradientUnits="userSpaceOnUse" x1="57.2478" y1="45.2977" x2="42.8278" y2="60.4722" gradientTransform="matrix(1 0 0 -1 0 88)">
				<stop  offset="0.4935" style="stop-color:#FFFFFF"/>
				<stop  offset="0.5482" style="stop-color:#FAFAFA"/>
				<stop  offset="0.6109" style="stop-color:#ECECEC"/>
				<stop  offset="0.6775" style="stop-color:#D5D5D5"/>
				<stop  offset="0.747" style="stop-color:#B5B5B5"/>
				<stop  offset="0.8185" style="stop-color:#8C8C8C"/>
				<stop  offset="0.8919" style="stop-color:#595959"/>
				<stop  offset="0.9654" style="stop-color:#1E1E1E"/>
				<stop  offset="1" style="stop-color:#000000"/>
			</linearGradient>
			<path style="fill:url(#SVGID_00000171720567927321587850000014896002366501373371_);" d="M50.2,28c0,0,0.2,14.3,0,14.1
				s-7.1-7-7.1-7L50.2,28z"/>
			
				<linearGradient id="SVGID_00000025431186157692992330000017904062139924797843_" gradientUnits="userSpaceOnUse" x1="44.3782" y1="28.8605" x2="57.7083" y2="44.9573" gradientTransform="matrix(1 0 0 -1 0 88)">
				<stop  offset="0.4935" style="stop-color:#FFFFFF"/>
				<stop  offset="0.5482" style="stop-color:#FAFAFA"/>
				<stop  offset="0.6109" style="stop-color:#ECECEC"/>
				<stop  offset="0.6775" style="stop-color:#D5D5D5"/>
				<stop  offset="0.747" style="stop-color:#B5B5B5"/>
				<stop  offset="0.8185" style="stop-color:#8C8C8C"/>
				<stop  offset="0.8919" style="stop-color:#595959"/>
				<stop  offset="0.9654" style="stop-color:#1E1E1E"/>
				<stop  offset="1" style="stop-color:#000000"/>
			</linearGradient>
			<path style="fill:url(#SVGID_00000025431186157692992330000017904062139924797843_);" d="M58.5,50.6c0,0-14.3,0.2-14.1,0
				s7-7.1,7-7.1L58.5,50.6z"/>
			
				<linearGradient id="SVGID_00000183247411316941661500000001892051078673293480_" gradientUnits="userSpaceOnUse" x1="2164.5244" y1="-2507.8027" x2="2177.8545" y2="-2491.7061" gradientTransform="matrix(0 1 1 0 2535.1868 -2119.7268)">
				<stop  offset="0.4935" style="stop-color:#FFFFFF"/>
				<stop  offset="0.5482" style="stop-color:#FAFAFA"/>
				<stop  offset="0.6109" style="stop-color:#ECECEC"/>
				<stop  offset="0.6775" style="stop-color:#D5D5D5"/>
				<stop  offset="0.747" style="stop-color:#B5B5B5"/>
				<stop  offset="0.8185" style="stop-color:#8C8C8C"/>
				<stop  offset="0.8919" style="stop-color:#595959"/>
				<stop  offset="0.9654" style="stop-color:#1E1E1E"/>
				<stop  offset="1" style="stop-color:#000000"/>
			</linearGradient>
			<path style="fill:url(#SVGID_00000183247411316941661500000001892051078673293480_);" d="M35.9,58.9c0,0-0.2-14.3,0-14.1
				s7.1,7,7.1,7L35.9,58.9z"/>
			
				<linearGradient id="SVGID_00000096739315696048327280000016534924046471572405_" gradientUnits="userSpaceOnUse" x1="58.9977" y1="13.0216" x2="41.8111" y2="30.4597" gradientTransform="matrix(1 0 0 -1 0 88)">
				<stop  offset="0.4935" style="stop-color:#FFFFFF"/>
				<stop  offset="0.5482" style="stop-color:#FAFAFA"/>
				<stop  offset="0.6109" style="stop-color:#ECECEC"/>
				<stop  offset="0.6775" style="stop-color:#D5D5D5"/>
				<stop  offset="0.747" style="stop-color:#B5B5B5"/>
				<stop  offset="0.8185" style="stop-color:#8C8C8C"/>
				<stop  offset="0.8919" style="stop-color:#595959"/>
				<stop  offset="0.9654" style="stop-color:#1E1E1E"/>
				<stop  offset="1" style="stop-color:#000000"/>
			</linearGradient>
			<path style="fill:url(#SVGID_00000096739315696048327280000016534924046471572405_);" d="M50.2,58.9c0,0,0.2,14.3,0,14.1
				c-0.2-0.2-7.1-7-7.1-7L50.2,58.9z"/>
			
				<linearGradient id="SVGID_00000106850517135510458990000015843820969603357321_" gradientUnits="userSpaceOnUse" x1="62.0944" y1="72.3987" x2="62.0944" y2="37.3108" gradientTransform="matrix(1 0 0 -1 0 88)">
				<stop  offset="0.4935" style="stop-color:#FFFFFF"/>
				<stop  offset="0.5482" style="stop-color:#FAFAFA"/>
				<stop  offset="0.6109" style="stop-color:#ECECEC"/>
				<stop  offset="0.6775" style="stop-color:#D5D5D5"/>
				<stop  offset="0.747" style="stop-color:#B5B5B5"/>
				<stop  offset="0.8185" style="stop-color:#8C8C8C"/>
				<stop  offset="0.8919" style="stop-color:#595959"/>
				<stop  offset="0.9654" style="stop-color:#1E1E1E"/>
				<stop  offset="1" style="stop-color:#000000"/>
			</linearGradient>
			<path style="fill:url(#SVGID_00000106850517135510458990000015843820969603357321_);" d="M65.6,29.3c0,0,0.2,14.3,0,14.1
				c-0.2-0.2-7.1-7-7.1-7L65.6,29.3z"/>
		</g>
		<g class="st12">
			<polygon class="st13" points="27.1,50.2 21.2,44.3 24,47.1 			"/>
			<polygon class="st13" points="43.1,51.9 51.4,43.6 53,45.2 43.1,35.2 34.7,43.6 			"/>
			
				<linearGradient id="SVGID_00000132797722873909812750000016977895142581953933_" gradientUnits="userSpaceOnUse" x1="18.6" y1="21.95" x2="58.5236" y2="21.95" gradientTransform="matrix(1 0 0 -1 0 88)">
				<stop  offset="0" style="stop-color:#FFFFFF"/>
				<stop  offset="0.108" style="stop-color:#FAFAFA"/>
				<stop  offset="0.2318" style="stop-color:#ECECEC"/>
				<stop  offset="0.3633" style="stop-color:#D5D5D5"/>
				<stop  offset="0.5004" style="stop-color:#B5B5B5"/>
				<stop  offset="0.6417" style="stop-color:#8C8C8C"/>
				<stop  offset="0.7865" style="stop-color:#595959"/>
				<stop  offset="0.9316" style="stop-color:#1E1E1E"/>
				<stop  offset="1" style="stop-color:#000000"/>
			</linearGradient>
			<path style="fill:url(#SVGID_00000132797722873909812750000016977895142581953933_);" d="M46.6,55.5L43.1,59L18.6,83.5
				c2,2,5.1,2,7.1,0L43,66.2l3.6-3.6l3.6-3.6l8.4-8.4l-2.2-2.2L55,47.1L46.6,55.5z"/>
			
				<linearGradient id="SVGID_00000174584167960488797300000014066468636479618688_" gradientUnits="userSpaceOnUse" x1="86.9453" y1="69.2238" x2="59.279" y2="41.7252" gradientTransform="matrix(1 0 0 -1 0 88)">
				<stop  offset="0" style="stop-color:#FFFFFF"/>
				<stop  offset="0.108" style="stop-color:#FAFAFA"/>
				<stop  offset="0.2318" style="stop-color:#ECECEC"/>
				<stop  offset="0.3633" style="stop-color:#D5D5D5"/>
				<stop  offset="0.5004" style="stop-color:#B5B5B5"/>
				<stop  offset="0.6417" style="stop-color:#8C8C8C"/>
				<stop  offset="0.7865" style="stop-color:#595959"/>
				<stop  offset="0.9316" style="stop-color:#1E1E1E"/>
				<stop  offset="1" style="stop-color:#000000"/>
			</linearGradient>
			<path style="fill:url(#SVGID_00000174584167960488797300000014066468636479618688_);" d="M84.6,17.4L62.1,40l3.6,3.6l19-19
				C86.6,22.6,86.6,19.4,84.6,17.4z"/>
			<path class="st16" d="M46.6,55.5l8.4-8.4l-2-1.9l-1.6-1.6L43,52l-3.6,3.6L35.9,59l0,0L18.6,76.4c-2,2-2,5.2,0,7.1L43.1,59
				L46.6,55.5z"/>
			<path class="st16" d="M84.6,17.4c-2-2-5.1-2-7.1,0l-19,19l3.6,3.6L84.6,17.4z"/>
			
				<linearGradient id="SVGID_00000105421174240707708990000017528663634402177463_" gradientUnits="userSpaceOnUse" x1="-7.639" y1="13.6188" x2="22.5423" y2="42.5426" gradientTransform="matrix(1 0 0 -1 0 88)">
				<stop  offset="0" style="stop-color:#FFFFFF"/>
				<stop  offset="0.108" style="stop-color:#FAFAFA"/>
				<stop  offset="0.2318" style="stop-color:#ECECEC"/>
				<stop  offset="0.3633" style="stop-color:#D5D5D5"/>
				<stop  offset="0.5004" style="stop-color:#B5B5B5"/>
				<stop  offset="0.6417" style="stop-color:#8C8C8C"/>
				<stop  offset="0.7865" style="stop-color:#595959"/>
				<stop  offset="0.9316" style="stop-color:#1E1E1E"/>
				<stop  offset="1" style="stop-color:#000000"/>
			</linearGradient>
			<path style="fill:url(#SVGID_00000105421174240707708990000017528663634402177463_);" d="M24,47.1L3.1,68c-2-2-2-5.1,0-7.1
				l17.3-17.3l0.8,0.8L24,47.1z"/>
			
				<linearGradient id="SVGID_00000111181267439446287570000002509825759486659496_" gradientUnits="userSpaceOnUse" x1="72.5511" y1="90.7575" x2="33.1458" y2="54.5512" gradientTransform="matrix(1 0 0 -1 0 88)">
				<stop  offset="0" style="stop-color:#FFFFFF"/>
				<stop  offset="0.108" style="stop-color:#FAFAFA"/>
				<stop  offset="0.2318" style="stop-color:#ECECEC"/>
				<stop  offset="0.3633" style="stop-color:#D5D5D5"/>
				<stop  offset="0.5004" style="stop-color:#B5B5B5"/>
				<stop  offset="0.6417" style="stop-color:#8C8C8C"/>
				<stop  offset="0.7865" style="stop-color:#595959"/>
				<stop  offset="0.9316" style="stop-color:#1E1E1E"/>
				<stop  offset="1" style="stop-color:#000000"/>
			</linearGradient>
			<path style="fill:url(#SVGID_00000111181267439446287570000002509825759486659496_);" d="M39.5,31.6l3.6-3.6l3.6-3.6L69.2,2
				c-1-1-2.3-1.5-3.6-1.5S63,1,62.1,2l-19,19l-3.6,3.6l-3.6,3.6l-8.4,8.4l3.6,3.6L39.5,31.6z"/>
			<path class="st16" d="M24,47.1L3.1,68c2,2,5.2,2,7.1,0l17.3-17.3L27,50.2L24,47.1z"/>
			<path class="st16" d="M43.1,28.1l-3.6,3.6L31.1,40l3.6,3.6l8.4-8.4l3.6-3.6l3.6-3.6l19-19c2-2,2-5.1,0-7.1L46.6,24.5L43.1,28.1z"
				/>
			
				<linearGradient id="SVGID_00000129193782298780418710000012080286727359058342_" gradientUnits="userSpaceOnUse" x1="0" y1="49.75" x2="39.5045" y2="49.75" gradientTransform="matrix(1 0 0 -1 0 88)">
				<stop  offset="0" style="stop-color:#FFFFFF"/>
				<stop  offset="0.108" style="stop-color:#FAFAFA"/>
				<stop  offset="0.2318" style="stop-color:#ECECEC"/>
				<stop  offset="0.3633" style="stop-color:#D5D5D5"/>
				<stop  offset="0.5004" style="stop-color:#B5B5B5"/>
				<stop  offset="0.6417" style="stop-color:#8C8C8C"/>
				<stop  offset="0.7865" style="stop-color:#595959"/>
				<stop  offset="0.9316" style="stop-color:#1E1E1E"/>
				<stop  offset="1" style="stop-color:#000000"/>
			</linearGradient>
			<path style="fill:url(#SVGID_00000129193782298780418710000012080286727359058342_);" d="M24,40L1.5,17.4c-2,2-2,5.2,0,7.1l19,19
				l0,0l0.8,0.8l5.9,5.9l0.5,0.5l0,0l8.4,8.4l3.6-3.6L24,40z"/>
			
				<linearGradient id="SVGID_00000168096493717838884770000014246484190182986633_" gradientUnits="userSpaceOnUse" x1="76.8154" y1="-7.282" x2="44.3704" y2="23.654" gradientTransform="matrix(1 0 0 -1 0 88)">
				<stop  offset="0" style="stop-color:#FFFFFF"/>
				<stop  offset="0.108" style="stop-color:#FAFAFA"/>
				<stop  offset="0.2318" style="stop-color:#ECECEC"/>
				<stop  offset="0.3633" style="stop-color:#D5D5D5"/>
				<stop  offset="0.5004" style="stop-color:#B5B5B5"/>
				<stop  offset="0.6417" style="stop-color:#8C8C8C"/>
				<stop  offset="0.7865" style="stop-color:#595959"/>
				<stop  offset="0.9316" style="stop-color:#1E1E1E"/>
				<stop  offset="1" style="stop-color:#000000"/>
			</linearGradient>
			<path style="fill:url(#SVGID_00000168096493717838884770000014246484190182986633_);" d="M43.1,66.2l17.3,17.3c2,2,5.1,2,7.1,0
				L46.6,62.6L43.1,66.2z"/>
			<path class="st16" d="M39.5,55.5l3.6-3.6l-8.4-8.4L31.1,40l-3.6-3.6l-19-19c-2-2-5.1-2-7.1,0L24,40L39.5,55.5z"/>
			<path class="st16" d="M67.5,83.5c2-2,2-5.2,0-7.1L50.2,59l-3.6,3.6L67.5,83.5z"/>
			<path class="st16" d="M58.5,36.5l-8.4-8.4l-3.6,3.6l11.9,11.9l3.6,3.6L83,68c1-1,1.5-2.3,1.5-3.6c0-1.3-0.5-2.6-1.5-3.6
				L65.6,43.6L62.1,40L58.5,36.5z"/>
			<path class="st16" d="M43.1,21l-19-19c-2-2-5.1-2-7.1,0l22.6,22.6L43.1,21z"/>
			
				<linearGradient id="SVGID_00000062896357620031421690000007054866325632220351_" gradientUnits="userSpaceOnUse" x1="89.5328" y1="8.4215" x2="37.2185" y2="63.5863" gradientTransform="matrix(1 0 0 -1 0 88)">
				<stop  offset="0" style="stop-color:#FFFFFF"/>
				<stop  offset="0.108" style="stop-color:#FAFAFA"/>
				<stop  offset="0.2318" style="stop-color:#ECECEC"/>
				<stop  offset="0.3633" style="stop-color:#D5D5D5"/>
				<stop  offset="0.5004" style="stop-color:#B5B5B5"/>
				<stop  offset="0.6417" style="stop-color:#8C8C8C"/>
				<stop  offset="0.7865" style="stop-color:#595959"/>
				<stop  offset="0.9316" style="stop-color:#1E1E1E"/>
				<stop  offset="1" style="stop-color:#000000"/>
			</linearGradient>
			<path style="fill:url(#SVGID_00000062896357620031421690000007054866325632220351_);" d="M58.5,43.6l-11.9-12L43,35.2l10,10
				l1.9,1.9l1.4,1.4L75.9,68c2,2,5.1,2,7.1,0L62.1,47.1L58.5,43.6z"/>
			
				<linearGradient id="SVGID_00000057150098636193104100000013242076926598551225_" gradientUnits="userSpaceOnUse" x1="15.4715" y1="72.95" x2="39.5045" y2="72.95" gradientTransform="matrix(1 0 0 -1 0 88)">
				<stop  offset="0" style="stop-color:#FFFFFF"/>
				<stop  offset="0.108" style="stop-color:#FAFAFA"/>
				<stop  offset="0.2318" style="stop-color:#ECECEC"/>
				<stop  offset="0.3633" style="stop-color:#D5D5D5"/>
				<stop  offset="0.5004" style="stop-color:#B5B5B5"/>
				<stop  offset="0.6417" style="stop-color:#8C8C8C"/>
				<stop  offset="0.7865" style="stop-color:#595959"/>
				<stop  offset="0.9316" style="stop-color:#1E1E1E"/>
				<stop  offset="1" style="stop-color:#000000"/>
			</linearGradient>
			<path style="fill:url(#SVGID_00000057150098636193104100000013242076926598551225_);" d="M16.9,2c-2,2-2,5.1,0,7.1l19,19l3.6-3.6
				L16.9,2z"/>
		</g>
		<path class="st16" d="M86.1,21c0-1.3-0.5-2.6-1.5-3.6S82.4,16,81.1,16s-2.6,0.5-3.6,1.5l-9.7,9.7l-9.3,9.3l-8.4-8.4l0,0l19-19
			c2-2,2-5.1,0-7.1c-1-1-2.3-1.5-3.6-1.5c-0.8,0-1.7,0.2-2.4,0.7C62.7,1.4,62.3,1.7,62,2l-9.8,9.8L43.1,21l0,0l0,0c0,0,0,0-0.1,0
			L24.1,2c-1-1-2.3-1.5-3.6-1.5c-0.6,0-1.3,0.1-1.9,0.4C18,1.1,17.4,1.5,16.9,2c-2,2-2,5.1,0,7.1l19,19l-8.4,8.4l-19-19
			c-1-1-2.3-1.5-3.6-1.5c-0.6,0-1.3,0.1-1.9,0.4c-0.5,0.2-1,0.6-1.5,1c-2,2-2,5.2,0,7.1l19,19L3.1,60.9c-2,2-2,5.1,0,7.1
			s5.2,2,7.1,0l8.7-8.7l8.7-8.7L36,59l-8.4,8.4l-9,9c-1,1-1.5,2.3-1.5,3.6s0.5,2.6,1.5,3.6c2,2,5.2,2,7.1,0L43,66.3l17.3,17.3
			c1.5,1.5,3.8,1.9,5.7,1c0.5-0.2,1-0.6,1.4-1c2-2,2-5.2,0-7.1L50.2,59l0,0l8.4-8.4L75.9,68c0.5,0.5,1.1,0.9,1.7,1.1
			s1.3,0.4,1.9,0.4c1.3,0,2.6-0.5,3.6-1.5c2-2,2-5.1,0-7.1L65.6,43.6l19-19C85.6,23.6,86.1,22.3,86.1,21z M46,48.9l-3,3l0,0l0,0
			c0,0-3.6-3.6-5.7-5.6l-2.7-2.7l8.4-8.4l8.3,8.3C51,43.9,48,46.9,46,48.9z"/>
	</g>
</g>
<g id="Capa_2_00000038402830508299195550000006481871338144687039_">
</g>
</svg>
