<?xml version="1.0" encoding="utf-8"?>
<!-- Generator: Adobe Illustrator 26.2.1, SVG Export Plug-In . SVG Version: 6.00 Build 0)  -->
<svg version="1.1" id="Capa_1" xmlns="http://www.w3.org/2000/svg" xmlns:xlink="http://www.w3.org/1999/xlink" x="0px" y="0px"
	 viewBox="0 0 23.8 23.8" style="enable-background:new 0 0 23.8 23.8;" xml:space="preserve">
<style type="text/css">
	.st0{display:none;}
	.st1{fill:#0071B1;}
</style>
<g id="Container_Zones" class="st0">
</g>
<g id="Padding_Zones" class="st0">
</g>
<g id="Page_Margins" class="st0">
</g>
<g id="Containers_Grid" class="st0">
</g>
<g id="Padding_Grid" class="st0">
</g>
<g id="bg">
</g>
<g id="diseño">
	<g>
		<path class="st1" d="M10.4,14.1l3.9-2.2l-3.9-2.2V14.1z"/>
		<path class="st1" d="M11.9,0C5.3,0,0,5.3,0,11.9s5.3,11.9,11.9,11.9s11.9-5.3,11.9-11.9S18.4,0,11.9,0z M19.3,11.9
			c0,0,0,2.4-0.3,3.6c-0.2,0.6-0.7,1.1-1.3,1.3c-1.2,0.3-5.8,0.3-5.8,0.3s-4.6,0-5.8-0.3c-0.6-0.2-1.1-0.7-1.3-1.3
			c-0.3-1.1-0.3-3.6-0.3-3.6s0-2.4,0.3-3.6C4.9,7.7,5.4,7.2,6.1,7c1.2-0.3,5.8-0.3,5.8-0.3s4.6,0,5.8,0.3c0.6,0.2,1.1,0.7,1.3,1.3
			C19.3,9.5,19.3,11.9,19.3,11.9z"/>
	</g>
</g>
</svg>
